<?xml version="1.0" encoding="utf-8"?>
<!-- Generator: Moho 14.4 build 20251110 -->
<!DOCTYPE svg PUBLIC "-//W3C//DTD SVG 1.1//EN" "http://www.w3.org/Graphics/SVG/1.1/DTD/svg11.dtd">
<svg version="1.1" id="Frame_0" xmlns="http://www.w3.org/2000/svg" xmlns:xlink="http://www.w3.org/1999/xlink" width="1440px" height="1440px">
<g id="Layer_3">
<path id="S1" fill="#ffffff" fill-rule="evenodd" stroke="#ffffff" stroke-width="22" stroke-linecap="round" stroke-linejoin="round" d="M 298.853 1036.951 C 328.989 1088.515 358.649 1139.303 386.503 1186.632 C 447.257 1135.278 518.100 1075.396 594.856 1010.515 C 618.749 1019.427 641.397 1027.741 663.893 1035.999 C 727.786 1059.452 790.734 1082.559 850.057 1104.335 C 868.099 1110.957 887.513 1118.083 906.390 1125.012 C 966.288 1146.999 1019.298 1166.459 1065.982 1183.595 C 1072.303 1172.635 1078.638 1161.651 1084.372 1153.767 C 1107.001 1114.299 1129.736 1074.658 1152.922 1034.922 C 1123.682 1024.188 1091.604 1012.412 1057.671 999.688 C 1001.193 979.240 939.078 956.467 873.346 932.411 C 854.677 925.193 835.682 918.176 816.451 911.066 C 791.177 901.843 767.759 893.196 744.025 884.424 C 707.181 871.063 669.357 857.123 631.079 843.004 C 608.220 835.604 583.380 826.564 558.464 817.506 C 504.965 862.728 455.245 904.754 410.530 942.993 C 368.821 977.807 331.409 1009.432 298.853 1036.951 M 753.908 243.216 C 796.612 243.350 839.334 243.476 888.065 244.018 C 902.561 244.046 917.049 244.073 926.574 243.216 C 936.308 299.388 946.015 355.393 955.718 411.386 C 959.344 432.308 962.828 452.418 966.341 472.688 C 977.607 537.700 988.843 602.536 1000.127 667.945 C 1004.722 694.371 1009.310 720.786 1013.571 746.096 C 1111.937 782.204 1198.182 813.862 1264.526 838.215 C 1238.800 884.498 1209.474 935.571 1179.941 987.018 C 1140.541 972.555 1095.973 956.195 1047.023 938.249 C 990.517 917.484 928.137 894.587 862.310 870.423 C 858.291 845.684 853.888 820.446 849.463 795.300 C 842.789 756.152 836.083 717.522 829.294 678.452 C 824.848 652.566 820.323 626.452 815.764 600.148 C 812.284 580.068 808.784 559.875 805.563 538.258 C 794.130 475.232 782.817 409.684 771.391 342.639 C 765.615 310.774 759.767 277.025 753.908 243.216 M 271.511 989.682 C 296.133 968.870 322.845 946.292 352.098 921.543 C 397.468 883.215 448.117 840.403 501.226 795.511 C 516.878 782.280 532.744 768.869 548.773 755.320 C 567.906 739.146 587.271 722.776 607.344 706.054 C 636.616 681.165 666.422 655.914 696.905 629.855 C 717.137 613.004 737.986 595.380 758.753 577.827 C 747.690 514.289 736.345 448.831 724.769 382.050 C 716.953 336.928 708.843 290.130 700.713 243.216 C 637.984 243.490 582.431 243.357 527.134 243.216 C 542.664 332.824 558.120 422.009 573.288 509.530 C 553.026 527.060 532.428 544.407 511.675 561.861 C 463.000 603.317 413.204 645.410 363.843 687.134 C 348.902 699.764 332.382 713.728 315.992 727.582 C 272.264 764.544 226.837 802.942 183.896 839.239 C 189.930 849.569 195.951 859.875 198.252 865.072 C 222.087 905.780 245.669 946.081 271.511 989.682 Z"/>
</g>
</svg>
